<svg xmlns="http://www.w3.org/2000/svg" xmlns:xlink="http://www.w3.org/1999/xlink" width="55" height="55" viewBox="0 0 55 55">
  <defs>
    <clipPath id="clip-path">
      <rect id="Rectangle_4" data-name="Rectangle 4" width="51.513" height="46.899" fill="none"/>
    </clipPath>
  </defs>
  <g id="Group_15" data-name="Group 15" transform="translate(-0.039 -0.039)">
    <g id="Group_7" data-name="Group 7" transform="translate(1.763 4.07)">
      <g id="Group_6" data-name="Group 6" clip-path="url(#clip-path)">
        <path id="Path_30" data-name="Path 30" d="M0,20.321a3.793,3.793,0,0,1,1.2-2.037,3.392,3.392,0,0,1,2.182-.77c1.186,0,2.373,0,3.7,0a6.455,6.455,0,0,1-2.669-4.789,6.239,6.239,0,0,1,1.9-5,6.455,6.455,0,0,1,9.271.34A9.341,9.341,0,0,1,33.749,6.541a9.442,9.442,0,0,1-4.3,10.935c.2.016.343.036.481.036,1.709,0,3.419,0,5.129,0a3.312,3.312,0,0,1,3.493,3.459c.013,1.1,0,2.2,0,3.375.216-.111.362-.177.5-.257q4.394-2.534,8.785-5.075A2.34,2.34,0,0,1,51.493,21.1q-.009,7.691,0,15.383c0,2.229-.068,4.46.02,6.685a2.4,2.4,0,0,1-3.786,2.169c-2.848-1.728-5.76-3.348-8.646-5.013-.141-.081-.286-.156-.524-.285,0,.257,0,.432,0,.607-.005,1.056.027,2.113-.026,3.166a3.254,3.254,0,0,1-3.153,3.058c-.234.009-.469.007-.7.007-10.173,0-20.347-.021-30.52.02C2.249,46.906.72,46.447,0,44.151ZM19.295,45.27q7.817,0,15.633,0c1.393,0,2.017-.627,2.017-2.029q0-11.031,0-22.063c0-1.428-.627-2.054-2.049-2.054H3.68c-1.45,0-2.071.626-2.071,2.087q0,10.981,0,21.963c0,1.5.6,2.1,2.1,2.1H19.295M49.881,32.241q0-5.48,0-10.959c0-1.04-.46-1.314-1.35-.8Q43.746,23.242,38.959,26a.7.7,0,0,0-.412.706q.019,5.5,0,11.009a.668.668,0,0,0,.381.675q4.815,2.759,9.616,5.543c.851.491,1.335.207,1.335-.782q0-5.455,0-10.909M24.852,17.032a7.71,7.71,0,1,0-7.736-7.675,7.713,7.713,0,0,0,7.736,7.675m-14.1,0A4.748,4.748,0,1,0,6,12.216a4.73,4.73,0,0,0,4.746,4.818M16.9,14.223A17.72,17.72,0,0,1,15.9,16a17.031,17.031,0,0,1-1.336,1.48h5.746a9.7,9.7,0,0,1-3.4-3.255" transform="translate(0 0.001)" fill="#003e90"/>
        <path id="Path_31" data-name="Path 31" d="M44.333,87.789c-.362-.207-.707-.374-1.017-.591a.556.556,0,0,0-.725-.036.376.376,0,0,1-.136.064,1.583,1.583,0,0,0-1.421,1.563c-.03.417-.408.6-.813.6q-1.407.017-2.815,0a.809.809,0,0,1-.88-.784,1.388,1.388,0,0,0-1.065-1.29,1.428,1.428,0,0,0-1.58.134c-.54.415-.843.347-1.32-.125q-.911-.9-1.813-1.812c-.436-.441-.517-.771-.143-1.238a1.473,1.473,0,0,0,.139-1.71,1.352,1.352,0,0,0-1.184-.985c-.66-.091-.857-.37-.862-1.018q-.009-1.281,0-2.563c.005-.623.211-.868.824-1.014a2.217,2.217,0,0,0,.534-.128,2.2,2.2,0,0,0,.483-.408c.053-.054.046-.162.089-.232a1.537,1.537,0,0,0-.111-2.061.706.706,0,0,1,.136-1q1.006-1.02,2.027-2.024a.781.781,0,0,1,1.135-.056,1.439,1.439,0,0,0,1.712.152,1.374,1.374,0,0,0,.99-1.18c.107-.707.336-.851,1.06-.855.838,0,1.676-.006,2.513,0,.647,0,.861.181,1.017.807a.92.92,0,0,1,.04.2.874.874,0,0,0,.821.943.118.118,0,0,1,.047.018,1.358,1.358,0,0,0,1.838-.112.773.773,0,0,1,1.126.127c.638.641,1.283,1.276,1.916,1.922a.791.791,0,0,1,.112,1.2,1.466,1.466,0,0,0-.138,1.715A1.349,1.349,0,0,0,48.061,77c.654.081.837.367.84,1.029q.005,1.281,0,2.563c0,.614-.19.915-.772.98A1.761,1.761,0,0,0,47,84.257a.811.811,0,0,1-.12,1.245c-.622.633-1.247,1.265-1.888,1.879a3.832,3.832,0,0,1-.655.408m-.119-15.07c-.19.119-.384.218-.554.349a1.049,1.049,0,0,1-1.34.036,3.232,3.232,0,0,0-1.043-.48c-.953-.2-1.6-.64-1.632-1.7,0-.028-.032-.054-.076-.123a5.8,5.8,0,0,1-.92-.009c-.562-.09-.784.154-.824.682a1.014,1.014,0,0,1-.882.951,3.615,3.615,0,0,0-1.168.436,1.655,1.655,0,0,1-2.3-.1c-.02-.018-.064-.011-.188-.028-.27.29-.578.62-.884.952-.056.06-.1.129-.159.2a4.208,4.208,0,0,0,.295.476,1.115,1.115,0,0,1,.051,1.471,2.492,2.492,0,0,0-.4.859c-.2,1.017-.677,1.719-1.8,1.784-.015,0-.028.017-.077.049a5.993,5.993,0,0,1-.009.926c-.082.532.132.772.647.808a1.055,1.055,0,0,1,1.012.94,3.845,3.845,0,0,0,.487,1.255,1.469,1.469,0,0,1-.05,2,.4.4,0,0,0-.018.379c.3.377.628.726.939,1.077.35-.218.58-.352.8-.5a.924.924,0,0,1,.991-.044c.665.307,1.367.538,2.023.861a1.318,1.318,0,0,1,.625.635c.336.912.308.923,1.294.921h.569c.058-.241.124-.449.155-.661a1.062,1.062,0,0,1,.922-.976,3.123,3.123,0,0,0,1.032-.374c.857-.553,1.673-.781,2.412.077l1.211-1.21a4.148,4.148,0,0,0-.257-.4,1.16,1.16,0,0,1-.058-1.516,3.618,3.618,0,0,0,.533-1.237,1.431,1.431,0,0,1,1.4-1.314.47.47,0,0,0,.314-.325c.038-.448.015-.9.015-1.37a5.987,5.987,0,0,0-.659-.16,1.047,1.047,0,0,1-.969-.928,3.146,3.146,0,0,0-.358-.986c-.536-.866-.825-1.7.1-2.477l-1.2-1.209" transform="translate(-19.527 -47.089)" fill="#003e90"/>
        <path id="Path_32" data-name="Path 32" d="M71.393,17.18a5.638,5.638,0,1,1-5.645-5.661,5.647,5.647,0,0,1,5.645,5.661m-1.609-.037A4.029,4.029,0,1,0,65.74,21.2a4.019,4.019,0,0,0,4.044-4.062" transform="translate(-40.912 -7.839)" fill="#003e90"/>
        <path id="Path_33" data-name="Path 33" d="M26.6,34.686a3.33,3.33,0,1,1,3.3-3.336,3.306,3.306,0,0,1-3.3,3.336m-.011-1.61a1.72,1.72,0,1,0-1.74-1.7,1.7,1.7,0,0,0,1.74,1.7" transform="translate(-15.817 -19.073)" fill="#003e90"/>
        <path id="Path_34" data-name="Path 34" d="M49.423,94.977a5.141,5.141,0,1,1,5.127-5.109,5.129,5.129,0,0,1-5.127,5.109m-.043-1.609a3.532,3.532,0,1,0-3.513-3.51,3.533,3.533,0,0,0,3.513,3.51" transform="translate(-30.119 -57.639)" fill="#003e90"/>
      </g>
    </g>
    <rect id="Rectangle_5" data-name="Rectangle 5" width="55" height="55" transform="translate(0.039 0.039)" fill="none"/>
  </g>
</svg>
