<svg xmlns="http://www.w3.org/2000/svg" width="95" height="56" viewBox="0 0 95 56"><defs><style>.a{fill:none;}</style></defs><g transform="translate(138.581 496.706)"><path d="M-135.435-486.8h5.5v9.508h12.02v-9.488h5.622v26.7h-5.57v-11.944h-12.023v11.939h-5.551Z" transform="translate(-0.107 -0.665)"/><path d="M45.174-459.981,56.191-481.6H42.964v-5.155H62.353v4.845s-7.04,14.826-10.2,21.282a.989.989,0,0,1-1.052.667C49.184-460.006,47.262-459.981,45.174-459.981Z" transform="translate(-130.951 -0.694)"/><path d="M-23.911-465.065h13.3v5.1h-18.85v-26.707h5.555Z" transform="translate(-77.828 -0.757)"/><g transform="translate(-66.358 -487.706)"><path d="M127.163-486.191a1.426,1.426,0,0,1-1.5,1.445,1.516,1.516,0,0,1-1.557-1.51,1.537,1.537,0,0,1,1.623-1.449A1.44,1.44,0,0,1,127.163-486.191ZM125.679-485a1.226,1.226,0,0,0,1.241-1.272,1.236,1.236,0,0,0-1.246-1.2,1.267,1.267,0,0,0-1.3,1.243A1.309,1.309,0,0,0,125.679-485Z" transform="translate(-124.103 487.706)"/><g transform="translate(1.062 0.607)"><path d="M128.087-485.394a2.274,2.274,0,0,1,.422-.035.7.7,0,0,1,.493.139.424.424,0,0,1,.134.324.447.447,0,0,1-.321.435v.008a.424.424,0,0,1,.25.344,2.739,2.739,0,0,0,.131.468h-.227a2.2,2.2,0,0,1-.114-.407c-.05-.235-.142-.324-.341-.331h-.207v.738h-.22Zm.22.776h.225c.235,0,.384-.129.384-.324,0-.22-.159-.316-.392-.319a.9.9,0,0,0-.218.02Z" transform="translate(-128.087 485.429)"/></g></g><g transform="translate(-135.581 -456.034)"><path d="M-135.581-367.4h.7v6.639h-.7Z" transform="translate(135.581 367.794)"/><path d="M-121.335-360.8a2.13,2.13,0,0,1,.555,1.589v2.893h-.674v-2.826a1.654,1.654,0,0,0-.389-1.185,1.462,1.462,0,0,0-1.11-.408,1.7,1.7,0,0,0-1.276.479,1.809,1.809,0,0,0-.47,1.323v2.618h-.673v-4.989h.645v.92a1.872,1.872,0,0,1,.763-.706,2.444,2.444,0,0,1,1.133-.251A2.038,2.038,0,0,1-121.335-360.8Z" transform="translate(128.093 363.358)"/><path d="M-100.8-359.52a1.276,1.276,0,0,1-.469.261,1.892,1.892,0,0,1-.583.09,1.462,1.462,0,0,1-1.081-.38,1.448,1.448,0,0,1-.379-1.072v-3.016h-.892v-.569h.892V-365.3h.673v1.091h1.517v.569h-1.517v2.978a.942.942,0,0,0,.223.678.846.846,0,0,0,.64.232,1.231,1.231,0,0,0,.4-.066,1,1,0,0,0,.337-.19Z" transform="translate(112.567 366.254)"/><path d="M-84.555-358.606h-4.173a1.783,1.783,0,0,0,.6,1.257,1.985,1.985,0,0,0,1.366.479,2.152,2.152,0,0,0,.854-.166,1.865,1.865,0,0,0,.673-.489l.379.436a2.137,2.137,0,0,1-.83.607,2.807,2.807,0,0,1-1.1.209,2.77,2.77,0,0,1-1.361-.327,2.357,2.357,0,0,1-.925-.906,2.579,2.579,0,0,1-.332-1.309,2.672,2.672,0,0,1,.318-1.309,2.3,2.3,0,0,1,.872-.9,2.437,2.437,0,0,1,1.247-.323,2.411,2.411,0,0,1,1.242.323,2.285,2.285,0,0,1,.863.9,2.7,2.7,0,0,1,.313,1.314Zm-3.618-1.7a1.806,1.806,0,0,0-.555,1.2h3.538a1.807,1.807,0,0,0-.555-1.2,1.71,1.71,0,0,0-1.219-.46A1.7,1.7,0,0,0-88.173-360.308Z" transform="translate(101.711 363.358)"/><path d="M-64.675-361.091a2.4,2.4,0,0,1,1.162-.256v.654l-.161-.01a1.593,1.593,0,0,0-1.233.484,1.927,1.927,0,0,0-.446,1.356v2.542h-.673v-4.989h.645v.977A1.632,1.632,0,0,1-64.675-361.091Z" transform="translate(84.567 363.358)"/><path d="M-48.009-360.8a2.13,2.13,0,0,1,.555,1.589v2.893h-.673v-2.826a1.654,1.654,0,0,0-.389-1.185,1.462,1.462,0,0,0-1.11-.408,1.7,1.7,0,0,0-1.276.479,1.809,1.809,0,0,0-.469,1.323v2.618h-.673v-4.989h.645v.92a1.874,1.874,0,0,1,.763-.706,2.446,2.446,0,0,1,1.133-.251A2.038,2.038,0,0,1-48.009-360.8Z" transform="translate(74.312 363.358)"/><path d="M-25.862-360.859a1.889,1.889,0,0,1,.522,1.446v3.092h-.645v-.778a1.544,1.544,0,0,1-.669.607,2.339,2.339,0,0,1-1.048.218,2.052,2.052,0,0,1-1.328-.4,1.286,1.286,0,0,1-.493-1.053,1.276,1.276,0,0,1,.46-1.024,2.25,2.25,0,0,1,1.465-.389h1.584v-.3a1.279,1.279,0,0,0-.36-.981,1.489,1.489,0,0,0-1.053-.337,2.678,2.678,0,0,0-.911.156,2.293,2.293,0,0,0-.749.432l-.3-.5a2.7,2.7,0,0,1,.91-.5,3.549,3.549,0,0,1,1.119-.175A2.113,2.113,0,0,1-25.862-360.859Zm-.759,3.794a1.558,1.558,0,0,0,.607-.754v-.816h-1.565q-1.28,0-1.28.892a.815.815,0,0,0,.332.687,1.511,1.511,0,0,0,.93.251A1.776,1.776,0,0,0-26.621-357.065Z" transform="translate(57.795 363.358)"/><path d="M-6.479-359.52a1.276,1.276,0,0,1-.469.261,1.894,1.894,0,0,1-.584.09,1.462,1.462,0,0,1-1.081-.38,1.448,1.448,0,0,1-.38-1.072v-3.016h-.891v-.569h.891V-365.3h.673v1.091H-6.8v.569H-8.319v2.978a.943.943,0,0,0,.223.678.846.846,0,0,0,.64.232,1.232,1.232,0,0,0,.4-.066,1,1,0,0,0,.337-.19Z" transform="translate(43.391 366.254)"/><path d="M7.051-368.074a.466.466,0,0,1-.142-.341.456.456,0,0,1,.142-.332.477.477,0,0,1,.351-.142.486.486,0,0,1,.351.138.44.44,0,0,1,.142.327.476.476,0,0,1-.142.351.476.476,0,0,1-.351.142A.477.477,0,0,1,7.051-368.074Zm.01,1.233h.673v4.989H7.061Z" transform="translate(31.074 368.89)"/><path d="M16.405-356.6a2.385,2.385,0,0,1-.911-.906,2.581,2.581,0,0,1-.332-1.309,2.582,2.582,0,0,1,.332-1.309,2.351,2.351,0,0,1,.911-.9,2.623,2.623,0,0,1,1.3-.323,2.624,2.624,0,0,1,1.3.323,2.317,2.317,0,0,1,.906.9,2.609,2.609,0,0,1,.327,1.309,2.609,2.609,0,0,1-.327,1.309A2.351,2.351,0,0,1,19-356.6a2.593,2.593,0,0,1-1.3.327A2.593,2.593,0,0,1,16.405-356.6Zm2.252-.512a1.685,1.685,0,0,0,.659-.687,2.128,2.128,0,0,0,.237-1.015,2.127,2.127,0,0,0-.237-1.015,1.685,1.685,0,0,0-.659-.688,1.883,1.883,0,0,0-.953-.242,1.881,1.881,0,0,0-.953.242,1.718,1.718,0,0,0-.664.688,2.093,2.093,0,0,0-.242,1.015,2.094,2.094,0,0,0,.242,1.015,1.717,1.717,0,0,0,.664.687,1.881,1.881,0,0,0,.953.242A1.883,1.883,0,0,0,18.658-357.112Z" transform="translate(25.02 363.358)"/><path d="M43.392-360.8a2.13,2.13,0,0,1,.555,1.589v2.893h-.673v-2.826a1.654,1.654,0,0,0-.389-1.185,1.462,1.462,0,0,0-1.11-.408,1.7,1.7,0,0,0-1.276.479,1.809,1.809,0,0,0-.469,1.323v2.618h-.673v-4.989H40v.92a1.874,1.874,0,0,1,.763-.706,2.445,2.445,0,0,1,1.133-.251A2.038,2.038,0,0,1,43.392-360.8Z" transform="translate(7.276 363.358)"/><path d="M65.538-360.859a1.889,1.889,0,0,1,.522,1.446v3.092h-.645v-.778a1.542,1.542,0,0,1-.669.607,2.339,2.339,0,0,1-1.048.218,2.053,2.053,0,0,1-1.328-.4,1.286,1.286,0,0,1-.493-1.053,1.275,1.275,0,0,1,.46-1.024,2.249,2.249,0,0,1,1.465-.389h1.584v-.3a1.279,1.279,0,0,0-.36-.981,1.489,1.489,0,0,0-1.053-.337,2.677,2.677,0,0,0-.911.156,2.29,2.29,0,0,0-.749.432l-.3-.5a2.7,2.7,0,0,1,.91-.5,3.549,3.549,0,0,1,1.119-.175A2.113,2.113,0,0,1,65.538-360.859Zm-.759,3.794a1.558,1.558,0,0,0,.607-.754v-.816H63.821q-1.28,0-1.28.892a.815.815,0,0,0,.332.687,1.511,1.511,0,0,0,.93.251A1.775,1.775,0,0,0,64.779-357.065Z" transform="translate(-9.241 363.358)"/><path d="M84.434-368.89h.673v7.037h-.673Z" transform="translate(-25.785 368.89)"/></g></g><rect class="a" width="95" height="56"/></svg>