<svg xmlns="http://www.w3.org/2000/svg" width="39" height="44" viewBox="0 0 39 44">
    <g fill="none" fill-rule="evenodd">
        <g>
            <g>
                <path d="M13.13 19.361c-.331.819-.51 1.725-.502 2.688.015 1.87.743 3.596 2.051 4.864 1.29 1.247 2.994 1.915 4.856 1.904 3.97-.044 6.93-3.017 6.886-6.913-.022-1.843-.75-3.548-2.053-4.802-1.279-1.232-2.985-1.905-4.814-1.905h-.101c-2.94.04-5.327 1.707-6.323 4.164zm9.79 1.89c.384.218.579.475.579.759 0 .283-.194.537-.573.753l-4.888 2.773c-.244.14-.462.207-.651.207-.118 0-.224-.028-.319-.083-.246-.14-.372-.438-.372-.888l-.003-3.583c0-.692-.001-1.384.005-2.074.002-.356.137-.627.378-.766.244-.136.545-.116.851.058 1.666.945 3.334 1.892 4.994 2.844z" transform="translate(-957 -874) translate(957 874)"/>
                <path d="M18.237 20.295L18.237 23.717 21.244 22.004zM2.451 20.197l.003.06h2.571c.318-2.327 1.127-4.445 2.41-6.298 1.362-1.969 3.128-3.54 5.253-4.67 2.125-1.133 4.412-1.706 6.795-1.706h.009c3.076.003 5.889.887 8.36 2.628 3.48 2.454 5.558 5.833 6.178 10.044h2.573l-.002-1.453c0-2.104 0-4.19.012-6.274 0-.218-.052-.302-.27-.425C30.796 8.948 25.25 5.786 19.71 2.618c-.154-.09-.213-.088-.358-.007C13.775 5.8 8.194 8.983 2.61 12.161c-.135.077-.166.129-.166.274.007 1.94.009 3.88.009 5.822v1.94H2.45zM36.603 25.108l-.588.002c-.678.004-1.316.007-1.961-.015-.234-.001-.262.024-.32.275-.92 3.912-3.517 7.29-7.129 9.269-3.582 1.965-7.825 2.351-11.633 1.07-5.038-1.698-8.286-5.184-9.651-10.355-.067-.253-.108-.273-.305-.262-.702.03-1.443.03-2.4.005-.142-.005-.181.017-.183.019 0 0-.023.034-.022.176.017 2.091.015 4.185.006 6.277 0 .155.037.214.196.303 5.584 3.175 11.168 6.353 16.746 9.536.14.078.197.078.323.006 5.576-3.188 11.156-6.372 16.741-9.547.148-.085.185-.153.184-.348-.01-1.196-.008-2.394-.007-3.591l.003-2.82z" transform="translate(-957 -874) translate(957 874)"/>
                <path fill="#01408C" fill-rule="nonzero" d="M.949 17.352c-.003.974-.005 1.947.004 2.921v.001C.96 21.128.89 21.75.89 21.75l5.516-.002s.038-.56.138-1.386c.195-1.61.687-3.143 1.464-4.554 2.766-5.027 8.46-7.627 14.161-6.468 5.58 1.132 9.639 5.48 10.34 11.076.101.817.151 1.383.151 1.383s2.226.009 2.6.009c.456 0 2.849-.013 2.849-.013s-.01-.642-.008-1.55c.002-1.238.002-2.477.002-3.716 0-1.514 0-3.027.005-4.539.001-.408-.169-.696-.537-.902-1.937-1.096-3.868-2.201-5.8-3.304L29.318 6.38c-3.092-1.764-6.181-3.53-9.27-5.3-.349-.201-.684-.194-1.062.022-5.83 3.33-11.661 6.657-17.496 9.98-.384.22-.553.508-.548.939.01.941.008 1.883.007 2.827v2.503zm1.66-5.191C8.193 8.98 13.774 5.8 19.35 2.61c.145-.082.203-.085.358.007 5.54 3.17 11.084 6.33 16.633 9.485.218.123.27.206.27.425-.013 2.085-.012 4.17-.012 6.274l.002 1.453h-2.573c-.619-4.21-2.698-7.59-6.179-10.044-2.47-1.742-5.283-2.625-8.36-2.628h-.008c-2.383 0-4.67.573-6.796 1.705-2.124 1.13-3.892 2.703-5.252 4.671-1.285 1.854-2.094 3.971-2.41 6.297H2.453l-.003-.059v-1.94c0-1.941-.001-3.881-.008-5.822.001-.145.032-.199.167-.274zM38.102 29.532l.001-1.786c.001-.826.001-1.651-.001-2.478-.002-1.061.007-1.67.007-1.67h-5.534s-.073.433-.303 1.404c-.913 3.836-3.465 7.004-7 8.69-3.59 1.714-7.743 1.722-11.39.029-3.69-1.712-6.08-4.642-7.103-8.71-.25-.992-.333-1.416-.333-1.416l-5.556.003s.008.625.007 1.666v2.024C.898 28.83.9 30.371.89 31.911c-.004.484.181.803.598 1.038 5.829 3.308 11.65 6.625 17.47 9.948.197.112.379.168.564.168.187 0 .374-.056.57-.17 5.818-3.327 11.639-6.647 17.464-9.962.383-.218.558-.515.551-.937-.01-.82-.007-1.643-.005-2.464zm-1.677 2.334c-5.586 3.176-11.166 6.359-16.741 9.546-.127.073-.184.073-.323-.005-5.58-3.182-11.164-6.361-16.747-9.536-.157-.088-.196-.147-.196-.304.01-2.091.011-4.185-.006-6.277-.001-.141.023-.176.023-.176.001-.001.04-.023.182-.019.957.026 1.698.025 2.4-.004.198-.011.238.01.305.261 1.364 5.173 4.613 8.657 9.651 10.355 3.807 1.282 8.05.894 11.633-1.07 3.612-1.978 6.21-5.356 7.129-9.268.06-.253.086-.277.32-.275.645.022 1.283.019 1.962.015l.587-.003-.001 2.819c-.002 1.197-.003 2.395.007 3.591 0 .196-.036.264-.185.35z" transform="translate(-957 -874) translate(957 874)"/>
                <path fill="#01408C" fill-rule="nonzero" d="M19.526 13.69c-2.213 0-4.322.886-5.936 2.488-1.616 1.605-2.499 3.694-2.488 5.88.021 4.485 3.874 8.265 8.42 8.265h.023c2.172-.006 4.33-.916 5.92-2.496 1.612-1.603 2.494-3.68 2.484-5.852-.02-4.493-3.873-8.284-8.416-8.284-.001-.002-.005-.002-.007-.002zm4.843 3.41c1.304 1.255 2.031 2.96 2.053 4.802.044 3.897-2.918 6.87-6.886 6.914-1.862.01-3.567-.657-4.855-1.904-1.307-1.268-2.037-2.995-2.052-4.864-.007-.962.17-1.868.503-2.688.996-2.456 3.382-4.124 6.323-4.166h.102c1.828.001 3.534.675 4.812 1.907z" transform="translate(-957 -874) translate(957 874)"/>
                <path fill="#01408C" fill-rule="nonzero" d="M17.078 18.35c-.243.138-.378.41-.379.765-.006.69-.004 1.382-.004 2.074l.003 3.583c0 .45.125.75.371.888.095.055.202.083.32.083.189 0 .406-.069.65-.206 1.63-.923 3.26-1.848 4.889-2.774.379-.216.572-.47.572-.753 0-.284-.195-.54-.578-.76-1.66-.95-3.327-1.898-4.992-2.843-.309-.174-.608-.194-.852-.058zm1.159 1.945l3.007 1.71-3.007 1.712v-3.422z" transform="translate(-957 -874) translate(957 874)"/>
            </g>
        </g>
    </g>
</svg>
