<svg xmlns="http://www.w3.org/2000/svg" width="62" height="44" viewBox="0 0 62 44">
    <g fill="none" fill-rule="evenodd">
        <g>
            <g>
                <path d="M32.37 25.63c-1.863-1.062-3.679-2.096-5.52-3.156l-.553-.32v9.696l.555-.32c2.067-1.193 4.068-2.343 6.104-3.514l1.24-.713.554-.318-.556-.317-1.824-1.038z" transform="translate(-167 -874) translate(167 874)"/>
                <path d="M11.2 12.18h-.37V41.855h40.177V12.181H11.2zm25.65 15.693c-3.072 1.786-6.166 3.552-9.254 5.313l-1.687.964c-.344.195-1.041.553-1.53.8v-1.702c-.01-1.407-.007-2.807-.003-4.21l.003-2.113-.003-2.034c-.003-1.351-.007-2.7.003-4.058v-1.895c.507.303 1.231.736 1.621.963l1.899 1.084c2.98 1.701 5.95 3.398 8.922 5.116.342.198 1.067.604 1.58.89-.498.28-1.194.676-1.55.882zM2.97 12.118L2.601 12.118 2.601 12.484 2.601 41.518 2.601 41.885 2.97 41.885 5.052 41.885 8.668 41.885 9.037 41.885 9.037 41.518 9.037 12.484 9.037 12.118 8.668 12.118zM53.246 12.118L52.877 12.118 52.877 12.484 52.877 41.518 52.893 41.885 53.262 41.885 54.83 41.885 59.315 41.885 59.315 41.518 59.315 12.484 59.315 12.118 58.946 12.118z" transform="translate(-167 -874) translate(167 874)"/>
                <path fill="#01408C" fill-rule="nonzero" d="M27.897 20.984L25.999 19.9c-.39-.228-1.115-.66-1.621-.964v1.895c-.01 1.358-.008 2.708-.003 4.058l.003 2.035-.003 2.112c-.003 1.402-.008 2.802.003 4.21v1.703c.488-.248 1.185-.606 1.53-.8l1.686-.964c3.089-1.762 6.183-3.526 9.255-5.314.357-.205 1.052-.601 1.548-.883-.512-.286-1.237-.692-1.58-.89-2.968-1.716-5.94-3.413-8.92-5.114zm6.296 6.32l-1.24.712c-2.036 1.17-4.037 2.32-6.104 3.514l-.555.32v-9.696l.553.32c1.843 1.06 3.658 2.094 5.52 3.156l1.823 1.038.555.317-.552.318z" transform="translate(-167 -874) translate(167 874)"/>
                <path fill="#01408C" fill-rule="nonzero" d="M61.092 13.38v-3.012h-3c-4.518 0-9.03.016-13.545.03-4.514.015-9.03.031-13.548.031H3.592c-.712 0-2.039-.033-2.69-.05V43.63c.654-.008 1.999-.026 2.69-.026h54.732c.722 0 2.045.016 2.69.025v-2.713c.03-5.288.062-10.559.078-15.814.01-2.602.007-5.211.003-7.817l-.003-3.905zm-52.055-.896V41.884H2.601V12.118h6.437v.366zm41.97.063V41.854H10.83V12.181h40.177v.366zm8.308-.063V41.884h-6.421l-.014-.367V12.118h6.437v.366h-.002z" transform="translate(-167 -874) translate(167 874)"/>
                <path fill="#01408C" fill-rule="nonzero" d="M32.871 3.427L41.747 3.455 41.752 5.098 32.876 5.07z" transform="translate(-167 -874) translate(167 874) rotate(-49.412 37.311 4.263)"/>
                <path fill="#01408C" fill-rule="nonzero" d="M23.852 -0.176L25.495 -0.171 25.523 8.705 23.88 8.699z" transform="translate(-167 -874) translate(167 874) rotate(-40.588 24.687 4.264)"/>
            </g>
        </g>
    </g>
</svg>
