<svg xmlns="http://www.w3.org/2000/svg" width="55" height="44" viewBox="0 0 55 44">
    <g fill="none" fill-rule="evenodd">
        <g>
            <g>
                <path d="M24.131 41.614h6.738v-5.018H24.13v5.018zM1.98 2.688v33.756c17.036-2.103 34.018-2.103 51.026-.013V2.688c-17.036 2.09-34.031 2.09-51.026 0zm24.915 23.966c-.715 0-1.306-.618-1.306-1.347 0-.701.619-1.32 1.32-1.32.715 0 1.32.619 1.334 1.375 0 .729-.592 1.292-1.348 1.292zm2.42-3.808c-.674-.66-1.485-1.018-2.434-1.018-.948 0-1.746.371-2.433 1.031-.386-.398-.77-.77-1.155-1.155 1.966-1.993 5.142-2.062 7.177-.013l-1.155 1.155zm2.282-2.393c-1.237-1.224-2.832-1.911-4.688-1.911-1.857 0-3.438.687-4.73 1.966-.413-.371-.798-.729-1.196-1.086 2.64-2.915 8.112-3.768 11.852-.028-.413.344-.825.702-1.238 1.06zm2.393-2.227c-1.98-1.94-4.331-2.957-7.095-2.957-2.764 0-5.087 1.032-7.081 2.957-.372-.4-.729-.798-1.114-1.21 2.104-2.077 4.675-3.245 7.686-3.383 3.41-.137 6.325 1.031 8.732 3.369-.386.412-.743.811-1.128 1.224z" transform="translate(-562 -874) translate(562 874)"/>
                <path fill="#01408C" fill-rule="nonzero" d="M53.57.873c-2.392.289-4.785.591-7.178.811-6.338.564-12.69.963-19.07.853-5.116-.083-10.244-.316-15.36-.619C8.595 1.712 5.226 1.3 1.857.942 1.457.9.261.639.261.639V38.452s.853-.165 1.128-.206c2.282-.262 4.579-.592 6.861-.743 4.565-.33 9.13-.564 13.695-.839.137-.013.261.014.413.028v4.977h-.605c-.908 0-2.82-.013-3.727 0l.014 1.692h18.659v-1.705h-4.056V36.65c.26 0 .495-.014.728 0 2.833.137 5.679.22 8.498.453 3.836.303 7.659.702 11.481 1.1.454.014 1.389.207 1.389.207v-.688V1.396.708s-.894.138-1.169.165zM30.869 41.614H24.13v-5.018h6.738v5.018zm22.137-5.183c-17.008-2.09-33.99-2.09-51.026.013V2.688c16.995 2.09 33.99 2.09 51.026 0v33.743z" transform="translate(-562 -874) translate(562 874)"/>
                <path fill="#01408C" fill-rule="nonzero" d="M18.7 17.016c.385.412.742.81 1.114 1.21 1.994-1.925 4.317-2.957 7.081-2.957 2.764 0 5.115 1.018 7.095 2.957.385-.413.742-.812 1.127-1.224-2.406-2.338-5.32-3.506-8.73-3.369-3.012.138-5.583 1.306-7.687 3.383z" transform="translate(-562 -874) translate(562 874)"/>
                <path fill="#01408C" fill-rule="nonzero" d="M20.983 19.422c.398.357.783.715 1.196 1.086 1.292-1.279 2.873-1.966 4.73-1.966 1.856 0 3.451.687 4.689 1.911.412-.357.825-.715 1.237-1.059-3.74-3.74-9.213-2.887-11.852.028z" transform="translate(-562 -874) translate(562 874)"/>
                <path fill="#01408C" fill-rule="nonzero" d="M23.293 21.704c.384.385.77.757 1.155 1.155.687-.66 1.485-1.03 2.433-1.03.949 0 1.76.357 2.434 1.017l1.155-1.155c-2.035-2.05-5.211-1.98-7.177.013zM26.909 23.987c-.701 0-1.32.619-1.32 1.32 0 .729.591 1.347 1.306 1.347.756 0 1.348-.563 1.348-1.292-.014-.756-.62-1.375-1.334-1.375z" transform="translate(-562 -874) translate(562 874)"/>
            </g>
        </g>
    </g>
</svg>
