<svg xmlns="http://www.w3.org/2000/svg" width="34" height="56" viewBox="0 0 34 56"><defs><style>.a{fill:none;}</style></defs><g transform="translate(3.449 10.247)"><path d="M192.609-468.137c-.35.158-.671.3-.992.447l-2.8,1.272a1.164,1.164,0,0,1-.214.082.5.5,0,0,1-.611-.6,1.3,1.3,0,0,1,.092-.241l3.739-8.457c.058-.13.11-.262.179-.427-.121-.029-.219-.052-.317-.077-.213-.055-.43-.1-.638-.168a1.973,1.973,0,0,1-1.282-1.263A6.7,6.7,0,0,1,189.48-479c-.025-.19-.06-.378-.094-.566a2.092,2.092,0,0,0-.828-1.27c-.24-.19-.488-.372-.725-.565a6.3,6.3,0,0,1-.469-.422,2.032,2.032,0,0,1-.559-2.159c.117-.383.279-.753.413-1.131.1-.27.194-.541.262-.818a2.374,2.374,0,0,0-.236-1.477,8.478,8.478,0,0,1-.492-1.406,1.891,1.891,0,0,1,.461-1.761,13.706,13.706,0,0,1,1.046-.936,2.719,2.719,0,0,1,.229-.173,2.411,2.411,0,0,0,.992-1.86,6.193,6.193,0,0,1,.275-1.434,2.009,2.009,0,0,1,1.291-1.292,6.357,6.357,0,0,1,1.32-.268c.2-.027.4-.056.6-.092a2.068,2.068,0,0,0,1.29-.794c.2-.248.386-.5.583-.748a3.835,3.835,0,0,1,.842-.817,1.821,1.821,0,0,1,1.506-.29c.453.114.888.3,1.332.444.3.1.6.2.9.286a2.054,2.054,0,0,0,1.209-.147c.29-.1.565-.237.854-.338a6.383,6.383,0,0,1,.879-.261,1.838,1.838,0,0,1,1.679.468,6.573,6.573,0,0,1,.946,1.074,2.671,2.671,0,0,0,2.165,1.215,4.884,4.884,0,0,1,1.347.276,1.871,1.871,0,0,1,1.224,1.242c.141.464.2.951.3,1.429.043.215.077.432.118.648a1.9,1.9,0,0,0,.713,1.113c.25.208.516.4.766.605a7,7,0,0,1,.554.5,2.021,2.021,0,0,1,.528,2.116c-.118.393-.287.77-.424,1.158a8.171,8.171,0,0,0-.257.82,2.4,2.4,0,0,0,.246,1.475,7.983,7.983,0,0,1,.488,1.408,1.922,1.922,0,0,1-.494,1.78,12.814,12.814,0,0,1-.963.859,2.516,2.516,0,0,1-.23.171,2.42,2.42,0,0,0-1.044,1.891,5.906,5.906,0,0,1-.284,1.462,1.977,1.977,0,0,1-1.3,1.28c-.2.066-.407.108-.611.16-.1.025-.2.047-.327.078.066.159.117.291.174.42q1.863,4.216,3.727,8.431c.027.061.058.121.081.184a.5.5,0,0,1-.118.581.5.5,0,0,1-.562.09c-.151-.061-.3-.131-.446-.2q-1.568-.717-3.135-1.434c-.1-.047-.208-.083-.334-.132-.054.12-.1.213-.139.308q-.713,1.741-1.424,3.482a1.591,1.591,0,0,1-.12.26.494.494,0,0,1-.842.016,1.517,1.517,0,0,1-.131-.255q-2.054-4.649-4.106-9.3c-.031-.07-.06-.141-.092-.211-.055-.123-.1-.25-.274-.252s-.227.115-.282.241c-.1.228-.2.455-.3.683q-1.93,4.375-3.86,8.749a2.256,2.256,0,0,1-.166.334.5.5,0,0,1-.857-.017,1.584,1.584,0,0,1-.107-.235q-.718-1.754-1.435-3.508C192.71-467.929,192.664-468.019,192.609-468.137Zm-4.067-18.154a4.457,4.457,0,0,1-.493,1.788,3.239,3.239,0,0,0-.306,1.041.958.958,0,0,0,.272.842,6.766,6.766,0,0,0,.507.465c.176.147.367.276.547.42a3.271,3.271,0,0,1,1.172,1.489,5.034,5.034,0,0,1,.266,1.348,2.837,2.837,0,0,0,.3,1.128.866.866,0,0,0,.393.4,3.6,3.6,0,0,0,1.384.334,3.227,3.227,0,0,1,2.187.949c.175.19.339.39.5.589s.338.417.5.632a1.3,1.3,0,0,0,1.6.479,6,6,0,0,0,.614-.238,3.815,3.815,0,0,1,2.191-.431,4.692,4.692,0,0,1,1.356.451,3.61,3.61,0,0,0,.926.295,1.115,1.115,0,0,0,1.108-.386c.121-.136.242-.272.356-.414.144-.179.274-.369.419-.547a3.178,3.178,0,0,1,1.452-1.131,4.675,4.675,0,0,1,1.346-.269,2.683,2.683,0,0,0,1.181-.324.766.766,0,0,0,.338-.338A2.964,2.964,0,0,0,209-478.9a3.432,3.432,0,0,1,.986-2.438c.2-.187.426-.356.637-.536.3-.255.6-.5.886-.772a.888.888,0,0,0,.256-.79,3.288,3.288,0,0,0-.307-1.07,5.148,5.148,0,0,1-.286-.688,3.144,3.144,0,0,1-.164-1.554,4.871,4.871,0,0,1,.456-1.356,3.1,3.1,0,0,0,.3-1.072.914.914,0,0,0-.246-.766,5.715,5.715,0,0,0-.5-.472c-.206-.172-.429-.322-.636-.492a3.206,3.206,0,0,1-1.122-1.457,5.156,5.156,0,0,1-.262-1.349,2.779,2.779,0,0,0-.336-1.177.636.636,0,0,0-.322-.314,4.59,4.59,0,0,0-.7-.258c-.3-.066-.606-.082-.91-.12a3.215,3.215,0,0,1-2.189-1.129c-.128-.155-.247-.317-.376-.471-.227-.272-.449-.548-.689-.807a.976.976,0,0,0-.911-.312,3.564,3.564,0,0,0-.962.277,7.25,7.25,0,0,1-.823.337,2.7,2.7,0,0,1-1.582.116c-.413-.117-.816-.27-1.223-.407-.29-.1-.577-.2-.869-.292a1.022,1.022,0,0,0-1.1.3c-.133.137-.263.279-.383.427-.163.2-.312.412-.473.615a3.109,3.109,0,0,1-1.815,1.231,10.437,10.437,0,0,1-1.078.163,2.618,2.618,0,0,0-1.09.332.9.9,0,0,0-.3.291,2.629,2.629,0,0,0-.355,1.141,9.621,9.621,0,0,1-.152,1.02,2.584,2.584,0,0,1-.749,1.395c-.23.215-.474.416-.714.621-.284.242-.578.472-.851.726a.96.96,0,0,0-.3.888,3.31,3.31,0,0,0,.312,1.039A4.277,4.277,0,0,1,188.543-486.292Zm12.78,12.689-.056.056,3.474,7.871c.071-.14.113-.212.145-.289.1-.229.19-.46.284-.691l.9-2.208c.014-.035.03-.071.046-.105a.514.514,0,0,1,.77-.3c.943.424,1.883.855,2.825,1.282.071.032.147.051.285.1L206.45-475.9a1.15,1.15,0,0,0-.714.272c-.249.236-.481.491-.71.748-.312.35-.591.73-.924,1.058a1.819,1.819,0,0,1-1.574.542,8.22,8.22,0,0,1-.944-.235C201.495-473.533,201.41-473.571,201.323-473.6Zm-6.6,7.864c.04-.023.065-.029.071-.043q1.68-3.791,3.358-7.583a1.557,1.557,0,0,0,.054-.161.037.037,0,0,0-.008-.026c0-.008-.014-.013,0,0-.4.092-.79.19-1.181.268a1.731,1.731,0,0,1-1.335-.3,3.88,3.88,0,0,1-.843-.815c-.278-.341-.553-.684-.84-1.017a1.424,1.424,0,0,0-.7-.433c-.217-.062-.234-.06-.328.145-.131.287-.257.577-.384.866q-1.486,3.36-2.97,6.721a2.276,2.276,0,0,0-.072.238c.1-.033.15-.046.2-.069q.9-.409,1.8-.82c.366-.167.729-.339,1.1-.5a.5.5,0,0,1,.731.28c.025.052.046.105.068.158q.581,1.421,1.162,2.842C194.641-465.907,194.684-465.824,194.724-465.738Z" transform="translate(-186.698 499.342)"/><path d="M206.125-471.27a8.65,8.65,0,0,1,8.656-8.641,8.648,8.648,0,0,1,8.663,8.634,8.66,8.66,0,0,1-8.687,8.675A8.65,8.65,0,0,1,206.125-471.27ZM214.8-478.9a7.649,7.649,0,0,0-7.658,7.572,7.646,7.646,0,0,0,7.755,7.7,7.638,7.638,0,0,0,7.527-7.669A7.645,7.645,0,0,0,214.8-478.9Z" transform="translate(-201.732 484.305)"/><path d="M224.066-454.82c.045-.264.094-.556.144-.849.1-.585.193-1.171.305-1.754a.391.391,0,0,0-.128-.4c-.548-.522-1.087-1.053-1.629-1.581a3.267,3.267,0,0,1-.281-.287.489.489,0,0,1,.265-.811c.288-.068.585-.1.878-.144.578-.086,1.156-.172,1.735-.25a.445.445,0,0,0,.387-.28c.306-.65.631-1.29.949-1.934.051-.1.1-.2.154-.309a.527.527,0,0,1,.491-.339.542.542,0,0,1,.513.35c.367.748.743,1.491,1.1,2.243a.425.425,0,0,0,.366.266c.769.106,1.536.22,2.3.333a2.547,2.547,0,0,1,.338.064.494.494,0,0,1,.261.8,2.876,2.876,0,0,1-.279.289c-.542.529-1.08,1.06-1.629,1.581a.412.412,0,0,0-.137.428c.15.809.282,1.622.42,2.434.006.038.016.075.02.113a.506.506,0,0,1-.735.554c-.288-.129-.563-.287-.843-.434-.492-.258-.987-.511-1.472-.78a.418.418,0,0,0-.453.007c-.683.369-1.371.727-2.058,1.086a1.835,1.835,0,0,1-.34.153A.505.505,0,0,1,224.066-454.82Zm3.276-7.286c-.077.143-.123.224-.165.308-.239.479-.481.957-.712,1.441a.651.651,0,0,1-.547.4c-.446.056-.89.129-1.335.2-.185.028-.37.06-.611.1.1.1.159.172.225.236.348.342.682.7,1.051,1.018a.889.889,0,0,1,.3.97c-.1.457-.167.922-.244,1.384-.017.1-.019.2-.032.339.113-.048.183-.073.248-.107.483-.253.971-.5,1.446-.765a.707.707,0,0,1,.757,0c.46.255.929.494,1.4.738.081.042.167.077.3.136-.018-.159-.025-.271-.044-.381-.084-.49-.165-.981-.259-1.469a.755.755,0,0,1,.249-.771c.4-.36.771-.744,1.153-1.12.057-.056.106-.122.181-.21-.1-.02-.15-.033-.2-.041-.549-.081-1.1-.172-1.648-.237a.75.75,0,0,1-.655-.475c-.213-.47-.455-.927-.686-1.389C227.465-461.888,227.418-461.969,227.342-462.107Z" transform="translate(-214.29 471.806)"/></g><rect class="a" width="34" height="56"/></svg>