<svg xmlns="http://www.w3.org/2000/svg" width="95" height="56" viewBox="0 0 95 56"><defs><style>.a{fill:none;}</style></defs><g transform="translate(554.308 496.79)"><path d="M-315.144-400.276h-9.2c-.316-.851-.281-.915.562-1.07,1.886-.346,1.887-.346,1.135-2.138-.278-.663-.526-1.341-.856-1.978a.973.973,0,0,0-.659-.494c-1.622-.041-3.246-.008-4.868-.027a.6.6,0,0,0-.677.513c-.28.926-.57,1.852-.923,2.751-.229.584.029.865.5,1.033a6.071,6.071,0,0,0,1.158.253c.627.092.953.37.706,1.1h-14.917v-.895c.607-.129,1.179-.278,1.76-.365s.621-.444.454-.867c-.418-1.062-.852-2.119-1.322-3.159a.744.744,0,0,0-.557-.344c-1.648-.028-3.3-.036-4.943,0a.868.868,0,0,0-.623.465c-.359.9-.626,1.831-.967,2.736-.226.6.068.913.551,1.107a3.254,3.254,0,0,0,1.149.292c.734,0,.841.371.687,1.024h-6.944c-.189-.489-.155-.87.505-1a3.628,3.628,0,0,0,2.722-2.571c1.738-4.353,3.551-8.677,5.319-13.019.065-.161.248-.57.248-.57h2.682s.4.887.628,1.439q2.621,6.483,5.251,12.962a3.059,3.059,0,0,0,.432.778c.964,1.187,2.309,1.266,3.2.016a16.566,16.566,0,0,0,1.616-3.232q2.377-5.662,4.677-11.357c.115-.283.275-.606.275-.606h2.7s.3.679.53,1.265c1.663,4.329,3.444,8.612,5.181,12.913a2.761,2.761,0,0,0,2.828,1.991Zm-27.777-6.95-2.437-6.057-2.386,6.057Zm16.294-6.074-2.344,5.969h4.737Z" transform="translate(-146.809 -54.547)"/><path d="M-551.308-417.558l7.555.053c.544,0,1.088,0,1.632,0,.228.706.156,1.136-.65,1.154a1.535,1.535,0,0,0-.791.17c-.321.218-.8.535-.81.826-.075,1.786-.038,3.578-.038,5.4h7.19v-2.584c0-.375,0-.749,0-1.123-.011-1.941.268-2.124-1.909-2.7-.664-.175-.474-.625-.462-1.109a5.631,5.631,0,0,1,.57-.058q3.969-.006,7.937,0c.317,0,.713-.141.765.437s-.268.667-.7.722a6.689,6.689,0,0,0-.875.161,1,1,0,0,0-.863.975c-.027.747-.088,1.494-.09,2.241-.01,3.045,0,6.09,0,9.135,0,2,.207,2.223,2.217,2.488a1.631,1.631,0,0,1,.252.083v.906h-9.2v-.924c.444-.064.877-.142,1.314-.186a1.076,1.076,0,0,0,1.033-1.158c.037-1.943.014-3.887.014-5.88h-7.2q0,1.863,0,3.719,0,.824,0,1.648c0,1.181.186,1.4,1.359,1.641.314.064.626.137.988.217v.971h-9.236v-1.049a6.011,6.011,0,0,0,1.611-.192,1.341,1.341,0,0,0,.761-.928q.081-6.247.008-12.5a1.549,1.549,0,0,0-.759-1.033,7.042,7.042,0,0,0-1.62-.487Z" transform="translate(0 -54.499)"/><path d="M-448.661-490.79c.166.136.335.269.5.408a1.486,1.486,0,0,1,.567,1.775,1.619,1.619,0,0,1-1.723,1.126,1.524,1.524,0,0,1-1.428-1.115,1.637,1.637,0,0,1,.685-1.892c.161-.109.335-.2.5-.3Z" transform="translate(-74.772 0)"/><path d="M-446.635-337.012a1.809,1.809,0,0,1-.255-.6c-.021-1.567-.012-3.134-.012-4.69.982-.134,1.15,0,1.154.883.006,1.123.026,2.247-.009,3.369a4.63,4.63,0,0,1-.279,1.043Z" transform="translate(-77.697 -110.468)"/><path d="M-407.174-407.581c0,1.7-.035,3.392.034,5.077.012.29.426.625.73.822a2.042,2.042,0,0,0,.991.273c.757.031.757.465.62,1.053h-9.191c-.275-.793-.21-.9.611-1.01,1.529-.2,1.754-.459,1.755-2q0-5.355,0-10.71c0-1.7-.213-2-1.864-2.256-.51-.08-.689-.239-.667-.744.024-.572.417-.457.747-.458,3.071,0,6.142-.042,9.211.026a13.251,13.251,0,0,1,3.3.5,4.282,4.282,0,0,1,1.887,7,6.6,6.6,0,0,1-4.446,2.18C-404.687-407.676-405.93-407.656-407.174-407.581Zm-.06-1.276c1.6.008,3.065-.128,3.963-1.623a5.09,5.09,0,0,0-.241-4.83,3.941,3.941,0,0,0-3.723-.909Z" transform="translate(-102.068 -54.511)"/><path d="M-467.914-449.992a2.5,2.5,0,0,0,1.437-1.988c.073-1.126-.272-1.711-1.378-1.969-1.887-.439-3.8-.784-5.688-1.2a9.147,9.147,0,0,1-2.057-.644c-1.8-.886-1.921-2.737-.3-3.927a4.671,4.671,0,0,1,5.471.467c.579.607.489,1.138-.311,1.418a3.486,3.486,0,0,1-2.827-.223c-.177-.091-.347-.2-.526-.283a.675.675,0,0,0-.989.363.841.841,0,0,0,.392.727c.908.313,1.845.55,2.781.772,1.5.355,3.022.61,4.5,1.032a3.417,3.417,0,0,1,2.584,2.639,3.193,3.193,0,0,1-.668,2.655C-466.192-449.181-466.995-449.731-467.914-449.992Z" transform="translate(-55.272 -22.618)"/><path d="M-423.24-476.249l.115,1.026c-.4.039-.874.234-1.183.086a23.385,23.385,0,0,1-2.417-1.449,2.635,2.635,0,0,0-.793-.464l1.227,1.43c-1.272-.428-2.429-1.153-4.022-.65.094-1.443.084-2.832.3-4.185.176-1.088,1.483-1.359,2.552-.6a14.016,14.016,0,0,0,5.6,2.364c.489.092.977.181,1.542.285a1.787,1.787,0,0,1-1.644,1.19,6.432,6.432,0,0,1-2.443-.45,33.607,33.607,0,0,1-3.2-1.778,2.275,2.275,0,0,0-.8-.314l5.191,3.531Z" transform="translate(-90.044 -6.925)"/><path d="M-490.842-479.636c-1.613.812-3.194,1.7-4.852,2.4a7.107,7.107,0,0,1-2.595.459,1.588,1.588,0,0,1-1.516-1.185c1.584-.436,3.127-.8,4.632-1.292,1.175-.381,2.3-.914,3.451-1.374a5.265,5.265,0,0,1,.908-.324,1.03,1.03,0,0,1,1.347,1.062c.018.348.006.7.006,1.048,0,.955,0,1.911,0,2.871-.161-.072-.671.241-.8-.423l-3.68,1.562,3.233-3.2-.05-.079c-.373.285-.733.591-1.123.852-1.174.784-2.351,1.565-3.547,2.316a.762.762,0,0,1-1.132-.16c-.323-.489-.027-.9.357-1.144,1.284-.809,2.6-1.568,3.906-2.339.51-.3,1.03-.585,1.546-.877Z" transform="translate(-38.329 -7.298)"/><path d="M-440.425-455.983c1.3-.294,2.514-.556,3.719-.844a3.426,3.426,0,0,0,1.108-.4c.217-.145.3-.494.439-.752-.313-.138-.64-.411-.936-.38-.4.041-.76.425-1.159.468a8.13,8.13,0,0,1-2.331,0c-.686-.129-.785-.712-.35-1.263,1.369-1.736,5.026-1.639,6.3.165a1.887,1.887,0,0,1-.626,2.931,22.8,22.8,0,0,1-3.668,1.171,1.68,1.68,0,0,1-.988-.245C-439.4-455.361-439.857-455.657-440.425-455.983Z" transform="translate(-82.519 -22.613)"/><path d="M-455.333-427.141c.838-.434,1.462-.888,1.465-1.825a1.6,1.6,0,0,0-1.328-1.8c-.881-.26-1.789-.446-2.644-.77a3.217,3.217,0,0,1-1.9-4.5c.393-.846.678-1,1.575-.837.36.065.719.143,1.142.229a9.4,9.4,0,0,0-.937.8,1.918,1.918,0,0,0,.857,3.1c.843.3,1.719.5,2.569.781a2.815,2.815,0,0,1,1.988,3.5C-453.019-426.927-453.682-426.58-455.333-427.141Z" transform="translate(-67.894 -40.087)"/><path d="M-453.926-405.878a7.816,7.816,0,0,0,.749-.608,1.535,1.535,0,0,0-.637-2.581c-.586-.191-1.194-.313-1.789-.476a3.47,3.47,0,0,1-2.7-4.041c.258-1.5.959-1.794,2.516-.988-.139.117-.258.223-.383.32a1.816,1.816,0,0,0-.771,1.754,1.846,1.846,0,0,0,1.393,1.588c.784.239,1.6.39,2.366.669a2.512,2.512,0,0,1,.893,4.346C-452.837-405.427-452.871-405.426-453.926-405.878Z" transform="translate(-69.173 -56.396)"/><path d="M-455.317-394.059c-.239.222-.431.374-.592.554a1.635,1.635,0,0,0,.777,2.775c.758.232,1.534.41,2.3.626a1.922,1.922,0,0,1,1.42,1.735,2.019,2.019,0,0,1-.855,2.288c-.382.207-.982.013-1.483,0l-.014-.243c.255-.132.618-.2.742-.409a2.86,2.86,0,0,0,.534-1.444,1.463,1.463,0,0,0-.826-.987c-.867-.353-1.816-.5-2.7-.806a2.819,2.819,0,0,1-1.45-3.851c.456-.841.665-.914,1.529-.53C-455.76-394.269-455.581-394.182-455.317-394.059Z" transform="translate(-69.613 -71.605)"/><path d="M-510.442-465.3c-1.581.56-3.135,1.219-4.75,1.649a2.059,2.059,0,0,1-2.712-1.6c1.44-.339,2.88-.689,4.328-1.005a.843.843,0,0,1,.6.156,2.934,2.934,0,0,0,2.47.533Z" transform="translate(-24.86 -18.246)"/><path d="M-394-465.455a2.677,2.677,0,0,1-2.258,1.332c-2.087.161-3.809-.82-5.576-1.735a3.411,3.411,0,0,0,2.513-.736.55.55,0,0,1,.421-.057C-397.289-466.266-395.682-465.868-394-465.455Z" transform="translate(-111.24 -17.952)"/><path d="M-454.407-374.788a7.664,7.664,0,0,0-.744.509,1.344,1.344,0,0,0,.379,2.32c.81.371,1.69.587,2.511.938a1.819,1.819,0,0,1,.7,2.91c-.437.521-.9.659-1.464.153a5.728,5.728,0,0,0,.574-.38,1.162,1.162,0,0,0-.327-1.99c-.512-.185-1.054-.29-1.583-.426a2.775,2.775,0,0,1-2.34-2.213,1.9,1.9,0,0,1-.008-.666C-456.486-374.86-455.791-375.232-454.407-374.788Z" transform="translate(-70.384 -86.195)"/><path d="M-446.757-476.611h1.119c0,1.041,0,2.057,0,3.073,0,1.472.006,2.945,0,4.418,0,.928-.136,1.019-1.12.758Z" transform="translate(-77.807 -10.552)"/><path d="M-499.716-462.877c-.519,1.236-.095,1.856,1.144,1.972-1.259.6-2.5,1.256-3.79,1.763-.469.184-1.265.329-1.514-.339-.227-.611.227-1.109.8-1.435C-502-461.53-500.928-462.167-499.716-462.877Z" transform="translate(-35.255 -20.773)"/><path d="M-404.609-461.5c.082-.069.206-.213.241-.194,1.107.606,2.232,1.188,3.286,1.876.265.173.3.695.444,1.056-.372.13-.8.448-1.106.356-1.221-.37-2.4-.867-3.565-1.3a6.714,6.714,0,0,0,1.126-1.027c.074-.105-.286-.515-.448-.786Z" transform="translate(-108.652 -21.652)"/><path d="M-450.942-351.933c-.035-.076-.059-.1-.053-.119.621-1.783.478-2.051-1.335-2.529-.335-.089-.671-.181-.995-.3a1.931,1.931,0,0,1-1.271-2.84c.275-.71.429-.76,1.2-.357-.074.123-.14.248-.22.364-.638.918-.451,1.646.59,2.076.617.255,1.276.405,1.909.625a1.422,1.422,0,0,1,1.143,1.306A1.6,1.6,0,0,1-450.942-351.933Z" transform="translate(-71.807 -98.575)"/><path d="M-486.9-458c-.068.83-.124,1.614-.2,2.4-.016.155-.085.4-.19.435a12.475,12.475,0,0,1-2.236.727c-.623.105-.849-.353-.5-.893A9.671,9.671,0,0,1-486.9-458Z" transform="translate(-45.479 -24.405)"/><path d="M-408.657-453.824a3.952,3.952,0,0,1-2.89-.645c-.134-.082-.174-.373-.195-.574-.073-.7-.119-1.411-.174-2.089C-410.734-456.926-408.637-454.879-408.657-453.824Z" transform="translate(-103.736 -25.048)"/><path d="M-436.89-483.965c-1.6.537-1.914,1.026-1.79,2.8.01.149,0,.3.019.447.178,1.32.042,2.434-1.443,3.021-.506.2-.852.8-1.237,1.191-.043-.512-.207-1.088.72-1.4a2.283,2.283,0,0,0,1.387-2.348c.031-.767-.087-1.547.015-2.3a3.355,3.355,0,0,1,.638-1.471A1.054,1.054,0,0,1-436.89-483.965Z" transform="translate(-81.808 -4.738)"/><path d="M-460.182-476.248a9.933,9.933,0,0,0-1.614-1.374,2.11,2.11,0,0,1-1.118-2.027c-.013-.594.09-1.189.1-1.785.026-1.455-.23-1.784-1.583-2.115.707-.575,1.449-.511,1.843.239a3.445,3.445,0,0,1,.331,1.349c.05.768-.013,1.543.011,2.314a2.18,2.18,0,0,0,1.391,2.119C-460.06-477.241-460.105-476.779-460.182-476.248Z" transform="translate(-64.679 -5.104)"/><path d="M-445.816-433.041a8.449,8.449,0,0,1-.019,1.261c-.03.2-.3.545-.39.524-.268-.062-.7-.259-.715-.43a20.543,20.543,0,0,1,0-2.82c.01-.153.406-.371.636-.387.153-.011.445.266.471.444a9.751,9.751,0,0,1,.023,1.409Z" transform="translate(-77.635 -41.598)"/><path d="M-446.96-412.685c1.165.056,1.166.056,1.168,1.091a12.629,12.629,0,0,1-.024,1.633.9.9,0,0,1-.459.649c-.469.132-.67-.233-.679-.649C-446.974-410.85-446.96-411.74-446.96-412.685Z" transform="translate(-77.652 -58.126)"/><path d="M-445.784-390.3a3.969,3.969,0,0,1-.016.89c-.051.216-.3.582-.373.562-.271-.08-.7-.264-.719-.45a14.461,14.461,0,0,1-.036-2.3c0-.111.331-.319.464-.289.242.056.592.217.644.4a4.591,4.591,0,0,1,.03,1.184Z" transform="translate(-77.659 -73.599)"/><path d="M-445.793-372.408c0,.248-.013.5,0,.745.03.451-.2.617-.62.646-.454.031-.556-.226-.555-.6,0-.5,0-.994,0-1.491,0-.41.179-.65.627-.655.491-.006.57.282.545.68C-445.805-372.856-445.793-372.632-445.793-372.408Z" transform="translate(-77.652 -87.094)"/><path d="M-446.978-357.758c.463.253,1,.377,1.059.614a4.532,4.532,0,0,1-.048,1.658c-.014.092-.432.2-.638.163a.6.6,0,0,1-.356-.445C-447-356.355-446.978-356.949-446.978-357.758Z" transform="translate(-77.636 -99.003)"/><path d="M-439.483-450.219l-1.9.286v-1.915l1.989,1.427Z" transform="translate(-81.806 -28.981)"/><path d="M-452.672-451.28v1.743l-1.584-.2Z" transform="translate(-72.226 -29.403)"/><path d="M-453.019-341.253c-.882-.628-1.118-1.412-.755-2.093.331-.622.519-.682,1.351-.343C-453.43-343.12-453.229-342.24-453.019-341.253Z" transform="translate(-72.463 -109.32)"/><path d="M-415.375-444.622l1.162-1.117c.022.464.172,1,.028,1.1a3.026,3.026,0,0,1-1.151.228Z" transform="translate(-101.161 -33.527)"/><path d="M-477.09-444.616l.994.834-.077.251a3.229,3.229,0,0,1-1.053-.269c-.151-.1-.092-.521-.128-.8Z" transform="translate(-55.037 -34.363)"/><path d="M-458.013-448.247a3.535,3.535,0,0,1-.932.382c-.166.019-.368-.261-.554-.406l.09-.168h1.3Z" transform="translate(-68.324 -31.518)"/><path d="M-433.208-448.42c-.357.771-.77.765-1.413,0Z" transform="translate(-86.838 -31.532)"/></g><rect class="a" width="95" height="56"/><rect class="a" width="95" height="56"/></svg>